<?xml version="1.0" standalone="no"?>
<!DOCTYPE svg PUBLIC "-//W3C//DTD SVG 20010904//EN"
 "http://www.w3.org/TR/2001/REC-SVG-20010904/DTD/svg10.dtd">
<svg version="1.0" xmlns="http://www.w3.org/2000/svg"
 width="512.000000pt" height="512.000000pt" viewBox="0 0 512.000000 512.000000"
 preserveAspectRatio="xMidYMid meet">

<g transform="translate(0.000000,512.000000) scale(0.100000,-0.100000)"
fill="#000000" stroke="none">
<path d="M595 5101 c-54 -34 -383 -374 -390 -404 -4 -15 -2 -40 4 -56 7 -15
99 -114 205 -219 175 -175 195 -192 227 -192 19 0 46 7 59 16 41 27 360 347
376 376 8 15 14 42 14 60 0 29 -22 54 -203 235 -220 221 -227 225 -292 184z
m153 -528 l-103 -103 -97 97 c-54 54 -98 102 -98 108 0 5 44 54 97 107 l98 98
102 -102 103 -103 -102 -102z"/>
<path d="M2222 5095 c-35 -29 -47 -70 -33 -106 5 -13 39 -57 74 -98 190 -217
288 -523 257 -802 -16 -142 -6 -136 -120 -68 -265 157 -488 246 -679 269 -196
25 -360 -42 -433 -177 -18 -33 -157 -545 -449 -1663 -232 -888 -425 -1618
-429 -1623 -3 -4 -33 -12 -66 -17 -133 -22 -246 -109 -307 -238 -29 -61 -32
-75 -31 -162 0 -142 44 -233 153 -323 72 -59 139 -81 251 -81 87 -1 101 2 162
31 129 61 216 174 238 307 5 33 13 63 17 66 5 4 735 197 1623 429 1118 293
1630 430 1663 449 96 52 161 154 179 283 12 91 -8 236 -52 369 -37 110 -156
360 -228 475 -38 61 -47 82 -37 88 31 17 216 28 312 18 239 -25 430 -107 613
-264 73 -62 89 -72 123 -72 32 0 45 7 69 34 26 29 30 39 25 75 -5 34 -15 50
-64 95 -169 155 -380 263 -616 312 -142 30 -351 30 -496 0 -57 -12 -107 -18
-111 -14 -4 4 -29 37 -55 73 -73 98 -228 282 -316 376 -44 46 -79 87 -79 91 0
5 124 132 275 283 152 151 285 290 297 308 51 82 -42 184 -128 139 -16 -9
-155 -142 -309 -296 -154 -155 -283 -281 -288 -281 -4 0 -45 35 -90 78 -101
95 -231 205 -357 302 -52 40 -97 74 -98 76 -2 1 4 35 13 75 84 373 -12 781
-256 1083 -103 127 -156 152 -217 101z m-452 -1017 c152 -29 385 -136 613
-282 l58 -37 -37 -67 c-45 -83 -107 -171 -167 -238 -55 -61 -64 -90 -42 -137
18 -38 50 -57 98 -57 26 0 43 12 94 66 62 64 131 160 188 259 15 28 29 52 31
53 7 10 390 -312 453 -382 l25 -26 -226 -228 c-228 -229 -247 -254 -234 -307
13 -52 69 -84 124 -70 17 4 109 88 254 233 l228 226 36 -34 c49 -48 248 -279
318 -369 l56 -73 -91 -54 c-168 -99 -289 -210 -289 -264 0 -45 19 -77 57 -95
47 -23 71 -14 150 53 80 68 167 129 240 166 l53 26 24 -39 c263 -416 364 -734
282 -889 -25 -48 -83 -72 -176 -72 -519 -1 -1559 813 -2126 1665 -207 312
-324 593 -324 782 0 186 89 237 330 191z m-304 -871 c410 -724 1269 -1540
1939 -1842 67 -30 91 -45 78 -49 -60 -18 -904 -236 -913 -236 -20 0 -199 121
-308 209 -440 355 -787 840 -950 1333 -48 144 -102 373 -102 432 0 15 20 105
46 199 25 95 50 189 55 211 l10 38 44 -96 c24 -54 70 -143 101 -199z m-316
-727 c194 -528 598 -1060 1068 -1409 39 -30 72 -57 72 -61 0 -6 -733 -201
-757 -200 -7 0 -47 39 -89 87 -275 316 -464 803 -464 1201 0 92 5 123 55 311
30 115 55 213 56 218 1 10 8 -8 59 -147z m-285 -920 c65 -240 217 -536 378
-735 31 -38 57 -72 57 -75 0 -5 -517 -142 -531 -140 -3 0 -20 20 -38 45 -17
24 -52 59 -76 76 -25 18 -45 37 -45 43 0 28 224 865 230 859 4 -5 15 -37 25
-73z m-364 -965 c73 -38 125 -138 113 -215 -15 -92 -90 -166 -180 -176 -135
-16 -246 95 -231 229 17 140 173 225 298 162z"/>
<path d="M3476 5098 c-14 -13 -59 -81 -100 -152 l-74 -128 -128 -74 c-156 -90
-178 -112 -171 -168 7 -51 22 -64 176 -151 l122 -69 75 -131 c42 -71 84 -139
95 -150 25 -26 99 -27 125 -3 11 9 53 76 94 148 l75 131 125 72 c166 96 175
104 175 161 0 58 -9 67 -169 160 l-129 75 -74 128 c-84 145 -109 173 -158 173
-21 0 -44 -9 -59 -22z m113 -370 c27 -49 43 -63 106 -100 l75 -42 -74 -42
c-65 -38 -78 -51 -115 -114 -23 -38 -44 -70 -46 -70 -2 0 -23 31 -45 69 -37
61 -51 75 -116 114 l-74 43 75 43 c68 38 78 48 116 116 48 83 40 85 98 -17z"/>
<path d="M4405 4534 c-38 -19 -252 -230 -272 -268 -43 -81 51 -175 133 -133
50 26 271 259 278 294 9 41 -14 87 -54 108 -36 19 -48 19 -85 -1z"/>
<path d="M4363 3820 c-21 -13 -35 -31 -42 -57 -17 -60 -14 -506 3 -547 27 -65
30 -66 339 -66 l279 0 29 29 29 29 0 282 c0 174 -4 289 -10 301 -24 45 -53 49
-332 49 -243 0 -265 -2 -295 -20z m437 -325 l0 -145 -145 0 -145 0 0 138 c0
76 3 142 7 145 3 4 69 7 145 7 l138 0 0 -145z"/>
<path d="M4518 1213 c-14 -16 -56 -81 -93 -145 -72 -128 -73 -128 -220 -212
-147 -83 -178 -127 -141 -195 8 -14 73 -59 151 -105 l139 -81 78 -135 c44 -74
87 -139 96 -145 32 -19 58 -22 92 -11 30 10 45 29 116 151 l81 140 138 80
c138 81 164 106 165 156 0 41 -34 75 -138 135 -170 99 -162 91 -241 229 -88
151 -101 165 -156 165 -32 0 -47 -6 -67 -27z m108 -338 c37 -66 65 -93 142
-135 23 -13 42 -27 42 -31 0 -4 -30 -24 -66 -44 -65 -37 -72 -45 -150 -171 -9
-15 -15 -10 -44 42 -45 80 -55 90 -127 131 -35 19 -63 38 -63 41 0 4 24 20 53
36 72 40 93 61 134 134 19 34 36 62 38 62 2 0 20 -29 41 -65z"/>
</g>
</svg>
