<?xml version="1.0" standalone="no"?>
<!DOCTYPE svg PUBLIC "-//W3C//DTD SVG 20010904//EN"
 "http://www.w3.org/TR/2001/REC-SVG-20010904/DTD/svg10.dtd">
<svg version="1.0" xmlns="http://www.w3.org/2000/svg"
 width="512.000000pt" height="512.000000pt" viewBox="0 0 512.000000 512.000000"
 preserveAspectRatio="xMidYMid meet">

<g transform="translate(0.000000,512.000000) scale(0.100000,-0.100000)"
fill="#000000" stroke="none">
<path d="M2490 5111 c-71 -22 -137 -77 -173 -145 -17 -32 -22 -58 -22 -121 0
-94 20 -140 85 -199 57 -52 103 -69 181 -70 155 -1 271 116 271 271 1 117 -78
226 -186 258 -53 16 -115 18 -156 6z m141 -200 c86 -87 -35 -215 -129 -136
-35 30 -45 69 -27 111 16 40 39 53 88 54 29 0 45 -7 68 -29z"/>
<path d="M588 4940 c-9 -6 -53 -77 -97 -158 l-81 -149 -137 -74 c-166 -90
-172 -95 -179 -140 -9 -51 18 -76 171 -160 72 -39 135 -76 142 -82 6 -7 44
-72 83 -145 76 -140 105 -172 152 -172 42 0 64 28 148 183 l74 137 148 81 c82
44 153 89 158 99 15 27 12 72 -5 97 -8 12 -79 57 -158 99 l-143 78 -73 135
c-41 75 -83 146 -94 159 -22 24 -78 30 -109 12z m102 -353 c23 -43 52 -84 64
-91 11 -7 52 -30 90 -51 l69 -38 -59 -32 c-109 -61 -127 -78 -173 -164 l-44
-83 -49 90 -49 91 -90 49 -89 48 83 46 c96 54 102 60 153 155 21 40 41 70 45
65 4 -4 26 -42 49 -85z"/>
<path d="M4438 4940 c-9 -6 -53 -77 -97 -158 l-81 -148 -146 -80 c-119 -64
-149 -85 -162 -112 -32 -66 -13 -85 202 -206 l109 -61 73 -135 c79 -146 109
-180 155 -180 43 0 65 27 149 183 l74 137 148 81 c82 44 153 89 158 99 15 27
12 72 -5 97 -8 12 -79 57 -158 99 l-143 78 -73 135 c-41 75 -83 146 -94 159
-22 24 -78 30 -109 12z m102 -353 c23 -43 52 -84 64 -91 11 -7 52 -30 90 -51
l69 -37 -54 -31 c-117 -65 -126 -73 -175 -163 l-47 -86 -48 90 -49 90 -85 47
c-47 25 -83 50 -80 55 3 4 38 26 78 48 85 47 92 54 143 149 21 40 41 70 45 65
4 -4 26 -42 49 -85z"/>
<path d="M1660 4895 c-13 -14 -23 -37 -23 -54 0 -38 175 -367 215 -404 25 -24
36 -28 62 -23 38 7 76 48 76 83 0 28 -181 374 -212 405 -27 27 -89 24 -118 -7z"/>
<path d="M3343 4898 c-24 -26 -201 -352 -209 -384 -8 -32 20 -79 56 -94 26
-11 36 -11 63 2 27 13 50 48 135 205 56 104 102 197 102 207 0 25 -27 73 -45
80 -36 13 -82 6 -102 -16z"/>
<path d="M2505 4386 c-32 -33 -37 -77 -33 -323 3 -212 3 -213 28 -237 39 -38
89 -38 125 -1 l25 24 0 251 0 252 -29 29 c-37 37 -82 39 -116 5z"/>
<path d="M2039 4245 c-34 -18 -52 -66 -39 -101 18 -47 183 -349 203 -371 46
-52 147 -13 147 56 0 30 -186 387 -214 410 -22 19 -70 22 -97 6z"/>
<path d="M3000 4246 c-26 -15 -230 -378 -230 -410 0 -47 40 -85 91 -86 49 0
61 16 170 215 100 184 112 227 74 265 -27 26 -74 33 -105 16z"/>
<path d="M1062 3843 c-28 -24 -516 -818 -563 -918 -196 -408 -50 -922 334
-1175 49 -33 93 -60 98 -62 7 -2 -144 -440 -157 -457 -2 -2 -39 4 -81 13 -247
55 -487 17 -603 -95 -62 -61 -85 -117 -85 -214 0 -68 5 -89 29 -139 58 -119
215 -255 401 -349 169 -84 325 -121 520 -122 178 0 279 30 364 110 99 93 118
220 54 356 -55 118 -220 268 -383 349 -25 12 -47 24 -49 26 -2 1 34 105 80
229 l83 227 30 -6 c17 -4 90 -9 161 -12 107 -5 147 -2 225 14 350 72 640 344
725 680 18 69 155 981 157 1036 0 28 -6 44 -23 61 -27 26 -1226 465 -1271 465
-14 0 -35 -8 -46 -17z m656 -381 c271 -99 495 -181 497 -184 7 -7 -123 -870
-141 -942 -93 -362 -455 -607 -824 -558 -462 62 -763 509 -640 950 23 84 51
141 123 261 l51 84 101 -6 c178 -9 315 -70 490 -218 131 -110 239 -179 282
-179 63 0 107 82 70 132 -7 9 -53 44 -102 77 -50 34 -123 90 -163 125 -146
125 -340 217 -494 232 -37 4 -68 10 -68 15 0 5 57 101 126 213 l126 205 36
-14 c20 -8 259 -95 530 -193z m-1093 -2383 c33 -6 66 -14 73 -18 9 -5 2 -36
-28 -116 -50 -134 -51 -164 -8 -200 25 -21 38 -25 62 -21 47 10 64 33 107 151
22 59 42 112 45 117 14 22 235 -130 290 -199 96 -119 94 -203 -6 -257 -97 -53
-256 -56 -440 -10 -203 51 -455 218 -519 342 -50 97 -11 169 111 207 52 17
229 19 313 4z"/>
<path d="M1859 2691 c-80 -81 33 -199 116 -121 37 35 35 90 -6 124 -40 34 -74
33 -110 -3z"/>
<path d="M3370 3635 c-435 -158 -620 -230 -632 -246 -10 -12 -18 -32 -18 -44
0 -13 34 -249 75 -525 81 -537 97 -605 169 -733 122 -220 324 -379 573 -453
111 -33 311 -44 415 -22 l67 14 50 -135 c28 -75 66 -179 85 -231 l34 -96 -75
-39 c-100 -51 -217 -138 -276 -206 -26 -30 -65 -87 -85 -128 -33 -67 -37 -82
-36 -150 0 -63 5 -85 27 -129 77 -148 318 -212 626 -166 123 18 196 41 304 94
244 122 427 321 444 482 27 261 -282 408 -680 323 -43 -9 -81 -14 -84 -12 -6
7 -150 397 -158 430 -6 21 2 29 60 62 182 107 327 283 400 485 39 108 55 207
55 330 0 152 -30 282 -94 408 -51 101 -526 867 -552 890 -14 12 -37 22 -52 22
-15 -1 -304 -102 -642 -225z m841 -352 c128 -208 245 -405 260 -438 93 -197
92 -431 -1 -632 -182 -391 -638 -551 -1025 -359 -187 93 -319 247 -383 446
-23 72 -48 217 -39 226 3 3 43 12 89 20 195 33 381 106 508 200 36 26 107 83
158 127 87 75 92 81 92 118 0 70 -63 109 -123 78 -12 -7 -60 -44 -107 -84
-145 -122 -248 -182 -395 -228 -86 -27 -241 -54 -251 -44 -3 3 -25 131 -48
284 -38 247 -41 279 -27 286 36 18 1027 375 1043 376 11 1 88 -116 249 -376z
m639 -2220 c66 -30 95 -66 95 -116 -1 -62 -30 -114 -110 -192 -162 -160 -392
-248 -650 -249 -152 -1 -211 12 -261 59 -28 27 -34 40 -34 74 0 23 9 60 21 83
42 83 165 191 285 251 l52 26 17 -47 c72 -193 76 -202 107 -218 34 -18 78 -12
101 14 32 35 30 64 -16 190 l-44 121 56 12 c31 6 61 13 66 15 6 2 69 2 140 1
106 -3 138 -7 175 -24z"/>
<path d="M3975 3185 c-35 -34 -33 -78 4 -116 58 -57 141 -23 141 59 0 76 -91
112 -145 57z"/>
<path d="M2503 1288 c-11 -13 -55 -97 -97 -188 -43 -90 -78 -166 -80 -167 -1
-1 -78 -14 -171 -28 -228 -34 -245 -42 -245 -117 0 -29 17 -51 137 -177 l137
-143 -32 -195 c-29 -178 -30 -198 -17 -224 17 -32 43 -49 76 -49 13 0 96 40
186 90 89 49 164 90 166 90 3 0 77 -41 166 -90 89 -50 173 -90 187 -90 31 0
84 50 84 80 0 12 -14 106 -30 208 l-30 186 134 135 c74 75 137 147 141 161 8
34 -8 75 -37 94 -13 8 -102 26 -198 40 -96 15 -178 30 -182 34 -4 4 -41 81
-83 172 -42 91 -86 173 -97 183 -29 25 -90 22 -115 -5z m117 -389 c61 -129 63
-130 210 -149 52 -7 98 -16 103 -20 4 -3 -33 -50 -83 -103 -59 -63 -90 -105
-90 -119 0 -13 9 -74 19 -135 9 -62 15 -113 11 -113 -4 0 -51 25 -106 55 -54
30 -109 55 -121 55 -13 0 -68 -25 -123 -56 -56 -31 -103 -54 -107 -51 -3 3 2
48 11 100 29 169 30 166 -75 273 -105 106 -110 94 55 118 71 11 104 20 120 35
11 11 41 65 66 120 25 55 48 101 51 101 3 0 29 -50 59 -111z"/>
</g>
</svg>
