<?xml version="1.0" standalone="no"?>
<!DOCTYPE svg PUBLIC "-//W3C//DTD SVG 20010904//EN"
 "http://www.w3.org/TR/2001/REC-SVG-20010904/DTD/svg10.dtd">
<svg version="1.0" xmlns="http://www.w3.org/2000/svg"
 width="139.000000pt" height="58.000000pt" viewBox="0 0 139.000000 58.000000"
 preserveAspectRatio="xMidYMid meet">

<g transform="translate(0.000000,58.000000) scale(0.100000,-0.100000)"
fill="#000000" stroke="none">
<path d="M0 435 l0 -135 25 0 c23 0 24 3 27 68 l3 67 28 -57 c24 -49 32 -58
56 -58 23 0 31 9 56 58 l30 57 3 -67 c3 -65 4 -68 27 -68 l25 0 0 135 0 135
-28 0 c-26 0 -32 -7 -67 -85 -21 -47 -41 -87 -45 -90 -3 -2 -24 36 -45 86 -36
81 -42 89 -67 89 l-28 0 0 -135z"/>
<path d="M405 560 c-67 -27 -97 -132 -55 -198 46 -74 153 -81 213 -14 18 20
18 21 -2 32 -18 9 -26 7 -48 -9 -30 -25 -54 -26 -92 -6 -32 16 -41 33 -41 76
0 67 93 106 140 59 17 -17 23 -18 39 -8 15 9 17 16 10 30 -21 40 -110 61 -164
38z"/>
<path d="M640 546 c0 -23 4 -25 51 -28 l51 -3 -66 -80 c-45 -55 -66 -89 -66
-107 l0 -28 105 0 c105 0 105 0 105 25 0 23 -3 24 -69 27 l-70 3 70 85 c40 49
69 95 69 108 0 21 -3 22 -90 22 -89 0 -90 0 -90 -24z"/>
<path d="M1020 540 c0 -25 -4 -30 -25 -30 -22 0 -25 -4 -25 -40 0 -38 -2 -40
-30 -40 -30 0 -30 -1 -30 -55 0 -54 0 -55 -30 -55 -16 0 -30 -4 -30 -10 0 -6
95 -10 265 -10 170 0 265 4 265 10 0 6 -16 10 -35 10 l-35 0 0 55 0 55 -35 0
c-34 0 -35 1 -35 40 0 33 -3 40 -20 40 -16 0 -20 7 -20 30 l0 30 -90 0 -90 0
0 -30z m160 -10 c0 -18 -7 -20 -70 -20 -63 0 -70 2 -70 20 0 18 7 20 70 20 63
0 70 -2 70 -20z m40 -70 l0 -30 -115 0 -115 0 0 30 0 30 115 0 115 0 0 -30z
m70 -95 l0 -45 -180 0 -180 0 0 45 0 45 180 0 180 0 0 -45z"/>
<path d="M0 135 l0 -135 25 0 c23 0 25 4 25 40 l0 40 40 0 c38 0 40 2 40 30 0
28 -2 30 -40 30 l-40 0 0 40 0 40 65 0 c63 0 65 1 65 25 0 25 -1 25 -90 25
l-90 0 0 -135z"/>
<path d="M200 135 l0 -135 95 0 c95 0 95 0 95 25 0 24 -2 25 -65 25 -50 0 -65
3 -65 14 0 10 13 16 38 18 32 3 37 6 37 28 0 22 -5 25 -37 28 -37 3 -38 4 -38
43 l0 39 60 0 c57 0 60 1 60 25 0 25 -1 25 -90 25 l-90 0 0 -135z"/>
<path d="M460 250 c-43 -43 -22 -99 50 -135 28 -14 50 -29 50 -33 0 -27 -55
-43 -77 -21 -8 8 -17 7 -34 -1 l-23 -13 28 -23 c57 -50 156 -16 156 53 0 39
-11 52 -66 82 -27 14 -50 35 -52 45 -4 17 0 18 31 13 25 -4 39 -1 48 9 33 40
-72 63 -111 24z"/>
<path d="M640 245 c0 -22 4 -25 40 -25 l40 0 0 -110 0 -110 25 0 25 0 0 110 0
110 40 0 c36 0 40 3 40 25 l0 25 -105 0 -105 0 0 -25z"/>
<path d="M1001 248 c-5 -13 -29 -74 -54 -136 l-45 -112 28 0 c16 0 30 5 32 10
2 7 14 6 35 -2 24 -9 43 -9 73 -1 22 6 43 6 46 2 3 -5 17 -9 31 -9 20 0 24 4
19 18 -4 9 -28 70 -54 134 -44 111 -49 118 -75 118 -19 0 -30 -7 -36 -22z m69
-121 c19 -49 21 -60 9 -68 -27 -17 -89 -7 -89 14 0 21 45 126 51 119 3 -4 16
-33 29 -65z"/>
<path d="M1242 254 c-16 -11 -22 -25 -22 -54 0 -42 21 -66 80 -90 23 -9 30
-18 28 -34 -4 -25 -32 -32 -64 -15 -19 10 -26 10 -39 -1 -22 -18 -19 -28 15
-45 84 -43 180 21 139 94 -8 14 -34 37 -58 50 -23 13 -45 30 -48 38 -8 21 17
34 40 21 15 -7 23 -6 36 7 15 15 15 17 -3 31 -26 19 -76 18 -104 -2z"/>
</g>
</svg>
