<?xml version="1.0" standalone="no"?>
<!DOCTYPE svg PUBLIC "-//W3C//DTD SVG 20010904//EN"
 "http://www.w3.org/TR/2001/REC-SVG-20010904/DTD/svg10.dtd">
<svg version="1.0" xmlns="http://www.w3.org/2000/svg"
 width="512.000000pt" height="512.000000pt" viewBox="0 0 512.000000 512.000000"
 preserveAspectRatio="xMidYMid meet">

<g transform="translate(0.000000,512.000000) scale(0.100000,-0.100000)"
fill="#000000" stroke="none">
<path d="M1225 5101 c-48 -30 -373 -363 -385 -395 -20 -54 0 -82 203 -284 192
-191 193 -192 237 -192 44 0 45 1 237 192 202 202 223 230 203 284 -13 33
-351 378 -392 400 -36 19 -67 18 -103 -5z m160 -331 l100 -100 -103 -103 -102
-102 -102 102 -103 103 100 100 c55 55 102 100 105 100 3 0 50 -45 105 -100z"/>
<path d="M2511 5106 c-50 -28 -50 -33 -51 -463 l0 -403 -101 0 c-56 0 -120 -6
-143 -12 -54 -16 -131 -93 -145 -144 -6 -22 -11 -109 -11 -194 l0 -156 -87
-28 c-285 -93 -537 -248 -754 -465 -874 -874 -697 -2322 362 -2967 615 -375
1415 -361 2014 33 169 111 339 264 350 314 8 37 -19 93 -51 108 -55 25 -79 15
-174 -71 -121 -110 -242 -195 -371 -263 -89 -46 -226 -105 -245 -105 -2 0 13
24 35 53 91 121 194 322 257 505 l19 52 143 0 144 0 34 34 c38 38 43 72 17
116 -24 42 -53 50 -174 50 -108 0 -109 0 -104 23 39 170 85 523 85 658 0 18
16 19 350 19 l350 0 -4 -22 c-3 -13 -8 -54 -11 -91 -4 -37 -17 -115 -31 -173
-21 -95 -22 -110 -10 -139 17 -40 42 -55 93 -55 64 0 86 33 117 170 188 854
-225 1717 -1009 2110 -62 31 -165 74 -229 96 l-116 39 0 155 c0 85 -4 171 -10
190 -14 52 -67 109 -124 136 -44 20 -67 24 -158 24 l-108 0 0 400 c0 288 -3
406 -12 425 -22 48 -88 68 -137 41z m347 -1188 l3 -118 -301 0 -300 0 0 113
c0 63 3 117 7 120 4 4 137 6 297 5 l291 -3 3 -117z m-398 -678 l0 -340 -270 0
c-148 0 -270 2 -270 5 0 2 14 39 31 82 80 203 213 406 324 496 59 47 147 97
172 97 10 0 13 -67 13 -340z m310 297 c113 -66 245 -226 334 -404 32 -65 96
-216 96 -228 0 -3 -121 -5 -270 -5 l-270 0 0 341 0 341 28 -7 c15 -3 52 -21
82 -38z m-789 -79 c-91 -122 -194 -323 -257 -505 l-19 -53 -258 0 -258 0 33
47 c18 25 76 90 128 143 158 160 335 281 541 370 63 28 118 50 122 50 4 0 -10
-24 -32 -52z m1245 5 c104 -43 240 -122 346 -198 92 -67 275 -245 326 -318
l33 -47 -258 0 -258 0 -19 53 c-64 183 -166 383 -258 506 -46 61 -48 61 88 4z
m-1580 -780 c-26 -87 -66 -373 -82 -590 l-6 -93 -349 0 -349 0 4 23 c3 12 8
53 11 90 14 151 83 383 156 530 l29 57 296 0 c277 0 295 -1 290 -17z m814
-333 l0 -350 -351 0 -351 0 7 93 c14 203 69 563 91 599 3 4 140 8 305 8 l299
0 0 -350z m803 343 c3 -5 17 -64 31 -133 26 -130 50 -309 61 -467 l7 -93 -351
0 -351 0 0 350 0 350 299 0 c165 0 302 -3 304 -7z m826 -50 c73 -147 142 -379
156 -530 3 -37 8 -78 11 -90 l4 -23 -350 0 c-334 0 -350 1 -350 19 0 135 -46
488 -85 659 l-5 22 295 0 295 0 29 -57z m-2525 -935 c16 -218 56 -504 82 -590
5 -17 -13 -18 -290 -18 l-296 0 -29 58 c-73 146 -142 378 -156 529 -3 37 -8
78 -11 91 l-4 22 349 0 349 0 6 -92z m896 -258 l0 -350 -299 0 c-165 0 -302 4
-305 8 -22 36 -77 396 -91 600 l-7 92 351 0 351 0 0 -350z m895 258 c-11 -159
-35 -338 -61 -468 -14 -69 -28 -128 -31 -132 -2 -5 -139 -8 -304 -8 l-299 0 0
350 0 350 351 0 351 0 -7 -92z m-1631 -860 c63 -183 166 -384 257 -505 22 -29
37 -53 33 -53 -3 0 -55 21 -115 46 -125 53 -258 130 -374 217 -90 68 -253 229
-303 300 l-33 47 258 0 258 0 19 -52z m736 -289 l0 -341 -27 7 c-127 30 -306
220 -417 442 -32 65 -96 216 -96 228 0 3 122 5 270 5 l270 0 0 -341z m740 336
c0 -12 -64 -163 -96 -228 -111 -222 -290 -412 -416 -442 l-28 -7 0 341 0 341
270 0 c149 0 270 -2 270 -5z"/>
<path d="M4224 4860 c-12 -4 -31 -21 -43 -37 -21 -25 -22 -37 -19 -131 3 -99
4 -105 31 -128 41 -35 99 -33 138 5 28 28 29 33 29 125 0 106 -11 141 -51 162
-31 16 -54 17 -85 4z"/>
<path d="M3824 4460 c-30 -12 -64 -58 -64 -87 0 -36 25 -78 55 -91 14 -7 69
-12 121 -12 92 0 97 1 125 29 48 49 38 125 -21 156 -32 17 -179 20 -216 5z"/>
<path d="M4485 4458 c-62 -34 -74 -110 -26 -159 29 -28 32 -29 134 -29 90 0
108 3 130 20 52 41 44 136 -14 165 -34 18 -194 20 -224 3z"/>
<path d="M464 4301 c-12 -5 -31 -22 -43 -37 -18 -23 -21 -40 -21 -125 0 -95 1
-100 29 -131 24 -27 36 -33 71 -33 35 0 47 6 71 33 28 31 29 36 29 132 0 95
-1 101 -27 130 -30 32 -75 45 -109 31z"/>
<path d="M4211 4186 c-13 -7 -30 -24 -37 -37 -17 -31 -18 -189 -2 -224 25 -56
107 -72 155 -31 28 24 28 25 28 141 0 116 0 117 -28 141 -31 27 -78 31 -116
10z"/>
<path d="M64 3900 c-12 -4 -31 -21 -44 -37 -29 -37 -23 -98 15 -130 24 -21 37
-23 131 -23 103 0 106 1 135 29 52 53 33 135 -38 162 -30 11 -170 11 -199 -1z"/>
<path d="M726 3895 c-41 -22 -55 -44 -56 -88 0 -29 7 -45 29 -68 29 -28 32
-29 135 -29 94 0 107 2 131 23 17 14 28 36 32 63 5 36 1 46 -25 75 -30 34 -32
34 -124 37 -70 2 -100 -1 -122 -13z"/>
<path d="M449 3625 c-40 -22 -51 -62 -47 -170 3 -92 4 -98 31 -121 19 -16 40
-24 67 -24 27 0 48 8 67 24 27 23 28 29 31 121 4 110 -7 149 -49 170 -35 19
-66 18 -100 0z"/>
<path d="M4071 1086 c-110 -61 -22 -227 92 -175 28 13 57 58 57 89 0 73 -84
122 -149 86z"/>
<path d="M201 686 l-204 -204 6 -43 c5 -39 20 -57 200 -236 179 -180 197 -195
236 -200 l43 -6 204 204 c183 183 204 208 204 237 0 19 -5 43 -11 55 -16 31
-349 366 -381 383 -15 8 -42 14 -60 14 -29 0 -54 -22 -237 -204z m347 -343
l-103 -103 -102 102 -103 103 102 102 103 103 102 -102 103 -103 -102 -102z"/>
<path d="M4625 879 c-31 -17 -365 -351 -381 -381 -8 -15 -14 -42 -14 -60 0
-29 22 -54 204 -237 l204 -204 43 6 c39 5 57 20 236 200 180 179 195 197 200
236 l6 43 -204 204 c-188 188 -207 204 -239 204 -19 0 -44 -6 -55 -11z m153
-536 l-103 -103 -102 102 -103 103 102 102 103 103 102 -102 103 -103 -102
-102z"/>
</g>
</svg>
